<svg width="48" height="48" viewBox="0 0 48 48" fill="none" xmlns="http://www.w3.org/2000/svg">
<path d="M1.97018 16.4144C1.31345 16.5603 0.656725 16.7062 0 16.8521V33.1929C0 33.7035 0.218909 34.2142 0.583756 34.5789C1.02157 33.8494 1.45939 33.1199 1.97018 32.4634V16.4144Z" fill="#F65700"/>
<path d="M3.06402 34.1395C2.6993 34.7231 2.33457 35.2337 1.96985 35.8903L13.4951 47.4164C13.8599 47.7811 14.3705 48 14.8811 48C14.6623 47.1975 14.5164 46.3951 14.3705 45.5926L3.06402 34.1395Z" fill="#F65700"/>
<path d="M31.6586 1.96965C31.5127 1.3131 31.3669 0.65655 31.221 0H14.8813C14.3707 0 13.8601 0.21885 13.4954 0.5836C14.2248 1.0213 14.9543 1.459 15.6108 1.96965H31.6586Z" fill="#F65700"/>
<path d="M11.8171 5.03494L12.4006 4.45134L13.8595 3.06529C13.276 2.70054 12.7654 2.33579 12.1089 1.97104L12.0359 2.04399L0.583559 13.4971C0.218835 13.8619 0 14.2996 0 14.8832C0.802394 14.6643 1.60479 14.5184 2.40718 14.3725L11.8171 5.03494Z" fill="#F65700"/>
<path d="M47.4163 13.4955C46.9785 14.225 46.5406 14.9545 46.0298 15.6111V31.6601C46.6866 31.5142 47.3433 31.3683 48 31.2224V14.8816C48 14.3709 47.7811 13.8603 47.4163 13.4955Z" fill="#F65700"/>
<path d="M45.0064 13.8605C45.3711 13.2769 45.7359 12.7662 46.1006 12.1097L35.4506 1.53195L34.5023 0.5836C34.1376 0.21885 33.627 0 33.1164 0C33.3352 0.802449 33.4811 1.6049 33.627 2.40735L45.0064 13.8605Z" fill="#F65700"/>
<path d="M16.4142 46.0287C16.5601 46.6852 16.706 47.3418 16.8519 47.9983H33.1915C33.7021 47.9983 34.2127 47.7795 34.5775 47.4147C33.848 46.977 33.1186 46.5393 32.4621 46.0287H16.4142Z" fill="#F65700"/>
<path d="M34.1385 45.0099C34.7221 45.3747 35.2327 45.7394 35.8892 46.1042L47.4145 34.5052C47.7792 34.1404 47.9981 33.6298 47.9981 33.1191C47.1957 33.338 46.3933 33.4839 45.5909 33.6298L34.1385 45.0099Z" fill="#F65700"/>
<path d="M33.2626 11.1632C32.8979 12.914 33.4085 14.7377 34.6486 15.9779L36.6181 17.9475L38.5876 19.9172C39.1711 19.5524 39.6818 19.1877 40.2653 18.75L33.9191 11.8927L33.2626 11.1632Z" fill="#F65700"/>
<path d="M11.4513 30.1303L9.48181 28.1606C8.89825 28.5254 8.38764 28.8901 7.80408 29.3278L9.40886 30.9327L10.503 32.027L14.8068 36.331C15.1715 34.945 14.7338 33.486 13.7856 32.4647L11.4513 30.1303Z" fill="#F65700"/>
<path d="M37.2003 28.7419V31.514C37.857 31.6599 38.5137 31.8058 39.1704 31.8788V29.5444V28.3772V21.7387C37.93 22.4682 37.2003 23.7813 37.2003 25.2403V28.5231V28.596V28.7419Z" fill="#F65700"/>
<path d="M19.9134 9.41228C19.5487 8.82868 19.184 8.31804 18.7463 7.73444L16.7768 9.70408L11.6707 14.8835C13.0566 15.2483 14.5155 14.8106 15.5367 13.8622L17.0686 12.3303L19.9134 9.41228Z" fill="#F65700"/>
<path d="M31.4378 10.7942C31.5837 10.1377 31.7296 9.4811 31.8025 8.82455H29.3224H21.7361C22.4656 10.0647 23.7786 10.7942 25.1646 10.7942H28.6659H31.4378Z" fill="#F65700"/>
<path d="M30.0544 36.6184L28.0848 38.588C28.4496 39.0987 28.7413 39.6093 29.1061 40.12L30.8567 38.588L31.805 37.6397L36.3276 33.1168C34.9417 32.7521 33.4828 33.1898 32.4615 34.1381L30.0544 36.6184Z" fill="#F65700"/>
<path d="M22.8315 37.2036H19.476H19.3301H16.5582C16.4123 37.8601 16.2664 38.5167 16.1935 39.1732H18.5277H19.8407H26.2599C25.5304 38.006 24.2904 37.2036 22.8315 37.2036Z" fill="#F65700"/>
<path d="M31.2206 42.4568C31.5854 42.8215 31.8771 43.1133 32.2419 43.4781L32.6795 43.0404L33.6278 42.092L41.8706 33.8487C40.9952 33.8487 40.1199 33.7757 39.2446 33.7028L30.783 42.165C30.9288 42.2379 31.0747 42.3838 31.2206 42.4568Z" fill="#F65700"/>
<path d="M42.4529 16.8517C42.8176 16.487 43.1094 16.1952 43.4741 15.8304L43.0365 15.3198L42.4529 14.7362L33.8454 6.12808C33.8454 7.00348 33.7725 7.87888 33.6995 8.75428L42.1611 17.2165C42.2341 17.0706 42.38 16.9247 42.4529 16.8517Z" fill="#F65700"/>
<path d="M18.3074 4.44893C18.891 5.03253 19.5475 5.76203 20.0581 6.41857H32.0211C32.0211 6.27268 32.0211 6.05383 32.0211 5.83498C32.0211 5.32433 32.0211 4.88663 31.9481 4.37598H31.5834H18.3074V4.44893Z" fill="#F65700"/>
<path d="M16.8486 5.54477C16.4839 5.18002 16.1921 4.88822 15.8274 4.52347L15.3168 5.03412L13.9308 6.42017L6.12573 14.1529C7.00107 14.1529 7.87641 14.2258 8.75175 14.2988L17.2134 5.90952C17.0675 5.76362 16.9216 5.69067 16.8486 5.54477Z" fill="#F65700"/>
<path d="M4.44965 16.1186V16.7752V17.4317V29.6143C5.0334 29.0307 5.7631 28.3742 6.41982 27.8635V16.0457C6.27388 16.0457 6.05497 16.0457 5.83607 16.0457C5.39825 16.0457 4.88746 16.0457 4.44965 16.1186Z" fill="#F65700"/>
<path d="M18.0178 43.625H29.689C29.0325 42.9684 28.4489 42.3119 27.9383 41.5824H16.0483C16.0483 41.7283 16.0483 41.9471 16.0483 42.166C16.0483 42.6766 16.0483 43.1143 16.1212 43.625H16.7777H18.0178Z" fill="#F65700"/>
<path d="M5.54406 31.2216C5.17933 31.5864 4.88755 31.8782 4.52283 32.2429L4.9605 32.6806L6.05467 33.7749L14.0786 41.7994C14.0786 40.924 14.1515 40.0486 14.2245 39.1732L5.90878 30.7839C5.76289 30.9298 5.68994 31.0757 5.54406 31.2216Z" fill="#F65700"/>
<path d="M43.6221 31.9527V31.2962V30.2019V18.3111C42.9654 18.9676 42.3087 19.5512 41.579 20.0619V32.0257C41.7249 32.0257 41.9438 32.0257 42.1627 32.0257C42.6735 31.9527 43.1113 31.9527 43.6221 31.9527Z" fill="#F65700"/>
<path d="M10.795 19.4052V18.5298V16.5602L8.75183 16.1954V17.7274V18.5298V19.1134V19.2593V26.2625C9.99231 25.533 10.722 24.2199 10.722 22.8338L10.795 19.4052Z" fill="#F65700"/>
</svg>
