<svg width="71" height="18" viewBox="0 0 71 18" fill="none" xmlns="http://www.w3.org/2000/svg">
<path d="M5.68619 17.0825V3.56675H0.599976V0.914124H13.5016V3.56675H8.41538V17.0825H5.68619Z" fill="#333333"/>
<path d="M12.0131 17.0863L18.9601 0.791565H21.5652L28.5122 17.0863H25.5349L23.9222 13.1705H16.417L14.8043 17.0863H12.0131ZM17.4714 10.6442H22.9918L20.2627 4.20209L17.4714 10.6442Z" fill="#333333"/>
<path d="M36.6367 17.4C34.1556 17.4 32.1707 16.579 30.6821 15C29.1314 13.4211 28.3871 11.4632 28.3871 9.06316V9.00001C28.3871 6.66316 29.1934 4.70527 30.7441 3.06316C32.2948 1.42106 34.2797 0.600006 36.6367 0.600006C37.9393 0.600006 39.1178 0.78948 40.0482 1.16843C40.9786 1.54737 41.909 2.05264 42.7774 2.81053L40.9786 4.9579C40.2963 4.38948 39.614 3.94737 38.9317 3.69474C38.2494 3.44211 37.443 3.25264 36.5126 3.25264C35.086 3.25264 33.8455 3.82106 32.853 4.9579C31.8606 6.09474 31.3644 7.42106 31.3644 9.00001V9.06316C31.3644 10.7684 31.8606 12.1579 32.853 13.2316C33.8455 14.3053 35.148 14.8737 36.7607 14.8737C38.2494 14.8737 39.552 14.4316 40.6064 13.6737V10.6421H36.5126V8.1158H43.2115V14.8737C41.2267 16.5158 39.0557 17.4 36.6367 17.4Z" fill="#333333"/>
<path d="M45.6931 17.0837V0.915283H57.4783V3.4416H48.4843V7.67318H56.4238V10.2627H48.4843V14.6205H57.5403V17.1469H45.6931V17.0837Z" fill="#333333"/>
<path d="M65.2936 17.3368C62.7505 17.3368 60.5175 16.4526 58.7188 14.7474L60.3935 12.7263C62.0062 14.1158 63.6809 14.8105 65.4177 14.8105C66.2861 14.8105 66.9684 14.6211 67.4646 14.2421C67.9608 13.8632 68.2089 13.3579 68.2089 12.7895V12.7263C68.2089 12.1579 67.9608 11.6526 67.4646 11.2737C66.9684 10.8947 66.0379 10.579 64.6113 10.2632C62.7505 9.82106 61.4479 9.25264 60.5796 8.5579C59.7112 7.86316 59.277 6.78948 59.277 5.4V5.33685C59.277 3.94737 59.7732 2.81053 60.8277 1.92632C61.8821 1.04211 63.1227 0.600006 64.7354 0.600006C66.9063 0.600006 68.8292 1.29474 70.5039 2.62106L69.0152 4.83158C67.5266 3.69474 66.1 3.18948 64.6733 3.18948C63.867 3.18948 63.2467 3.37895 62.7505 3.7579C62.2543 4.13685 62.0682 4.57895 62.0682 5.14737V5.27369C62.0682 5.90527 62.3163 6.41053 62.8125 6.72632C63.3088 7.10527 64.3012 7.42106 65.8519 7.8C67.6506 8.24211 68.9532 8.87369 69.7596 9.56842C70.5659 10.2632 71.0001 11.2737 71.0001 12.6V12.6632C71.0001 14.1789 70.5039 15.3158 69.4494 16.2C68.3329 16.8947 66.9684 17.3368 65.2936 17.3368Z" fill="#333333"/>
</svg>
