<svg width="16" height="18" viewBox="0 0 16 18" fill="none" xmlns="http://www.w3.org/2000/svg">
<path d="M8.63668 17.4C6.1556 17.4 4.17073 16.579 2.68208 15C1.13141 13.4211 0.387085 11.4632 0.387085 9.06316V9.00001C0.387085 6.66316 1.19343 4.70527 2.74411 3.06316C4.29479 1.42106 6.27966 0.600006 8.63668 0.600006C9.93925 0.600006 11.1178 0.78948 12.0482 1.16843C12.9786 1.54737 13.909 2.05264 14.7774 2.81053L12.9786 4.9579C12.2963 4.38948 11.614 3.94737 10.9317 3.69474C10.2494 3.44211 9.44303 3.25264 8.51262 3.25264C7.086 3.25264 5.84546 3.82106 4.85303 4.9579C3.8606 6.09474 3.36438 7.42106 3.36438 9.00001V9.06316C3.36438 10.7684 3.8606 12.1579 4.85303 13.2316C5.84546 14.3053 7.14803 14.8737 8.76074 14.8737C10.2494 14.8737 11.552 14.4316 12.6064 13.6737V10.6421H8.51262V8.1158H15.2115V14.8737C13.2267 16.5158 11.0557 17.4 8.63668 17.4Z" fill="#333333"/>
</svg>
