<svg width="13" height="18" viewBox="0 0 13 18" fill="none" xmlns="http://www.w3.org/2000/svg">
<path d="M7.29362 17.3368C4.75051 17.3368 2.51753 16.4526 0.71875 14.7474L2.39348 12.7263C4.00618 14.1158 5.68092 14.8105 7.41767 14.8105C8.28605 14.8105 8.96835 14.6211 9.46457 14.2421C9.96078 13.8632 10.2089 13.3579 10.2089 12.7895V12.7263C10.2089 12.1579 9.96078 11.6526 9.46457 11.2737C8.96835 10.8947 8.03794 10.579 6.61132 10.2632C4.75051 9.82106 3.44794 9.25264 2.57956 8.5579C1.71118 7.86316 1.277 6.78948 1.277 5.4V5.33685C1.277 3.94737 1.77322 2.81053 2.82768 1.92632C3.88213 1.04211 5.12267 0.600006 6.73537 0.600006C8.90632 0.600006 10.8292 1.29474 12.5039 2.62106L11.0152 4.83158C9.52659 3.69474 8.09997 3.18948 6.67335 3.18948C5.867 3.18948 5.24672 3.37895 4.75051 3.7579C4.25429 4.13685 4.06822 4.57895 4.06822 5.14737V5.27369C4.06822 5.90527 4.31632 6.41053 4.81254 6.72632C5.30875 7.10527 6.30118 7.42106 7.85186 7.8C9.65064 8.24211 10.9532 8.87369 11.7596 9.56842C12.5659 10.2632 13.0001 11.2737 13.0001 12.6V12.6632C13.0001 14.1789 12.5039 15.3158 11.4494 16.2C10.3329 16.8947 8.96835 17.3368 7.29362 17.3368Z" fill="#333333"/>
</svg>
